<svg width="465" height="255" viewBox="0 0 465 255" fill="none" xmlns="http://www.w3.org/2000/svg">
<rect width="348.75" height="191.25" fill="black" fill-opacity="0" transform="translate(0 255) scale(1.33333 -1.33333)"/>
<rect width="348.126" height="190.427" fill="black" fill-opacity="0" transform="translate(0 254.328) scale(1.33333 -1.33333)"/>
<rect width="348.126" height="190.427" fill="black" fill-opacity="0" transform="translate(0 254.328) scale(1.33333 -1.33333)"/>
<rect width="224.148" height="150.04" fill="black" fill-opacity="0" transform="translate(82.4194 200.478) scale(1.33333 -1.33333)"/>
<path d="M90.3461 149.857C90.3461 71.706 153.701 8.35134 231.851 8.35134C310.002 8.35134 373.355 71.706 373.355 149.857C373.355 167.695 370.046 184.758 364.022 200.478H372.482C378.174 184.669 381.283 167.626 381.283 149.857C381.283 67.3287 314.379 0.424684 231.851 0.424684C149.322 0.424684 82.4194 67.3287 82.4194 149.857C82.4194 167.626 85.5288 184.669 91.2194 200.478H99.6808C93.6568 184.758 90.3461 167.695 90.3461 149.857Z" fill="white"/>
<rect width="212.257" height="144.095" fill="black" fill-opacity="0" transform="translate(90.3462 200.478) scale(1.33333 -1.33333)"/>
<path d="M231.852 8.35149C153.701 8.35149 90.3462 71.7062 90.3462 149.857C90.3462 167.695 93.6569 184.758 99.6809 200.478H122.662C115.516 185.089 111.518 167.941 111.518 149.857C111.518 83.3995 165.394 29.5235 231.852 29.5235C298.309 29.5235 352.185 83.3995 352.185 149.857C352.185 167.941 348.186 185.089 341.041 200.478H364.022C370.046 184.758 373.355 167.695 373.355 149.857C373.355 71.7062 310.002 8.35149 231.852 8.35149Z" fill="#29A8E0"/>
<rect width="212.257" height="144.095" fill="black" fill-opacity="0" transform="translate(90.3462 200.478) scale(1.33333 -1.33333)"/>
<path d="M231.852 8.35149C153.701 8.35149 90.3462 71.7062 90.3462 149.857C90.3462 167.695 93.6569 184.758 99.6809 200.478H122.662C115.516 185.089 111.518 167.941 111.518 149.857C111.518 83.3995 165.394 29.5235 231.852 29.5235C298.309 29.5235 352.185 83.3995 352.185 149.857C352.185 167.941 348.186 185.089 341.041 200.478H364.022C370.046 184.758 373.355 167.695 373.355 149.857C373.355 71.7062 310.002 8.35149 231.852 8.35149Z" stroke="white" stroke-width="4" stroke-miterlimit="10"/>
<rect width="180.499" height="128.216" fill="black" fill-opacity="0" transform="translate(111.518 200.478) scale(1.33333 -1.33333)"/>
<path d="M352.183 149.857C352.183 83.3993 298.309 29.5233 231.851 29.5233C165.394 29.5233 111.518 83.3993 111.518 149.857C111.518 167.941 115.515 185.089 122.662 200.478H341.041C348.186 185.089 352.183 167.941 352.183 149.857Z" fill="#29A8E0"/>
<rect width="180.499" height="128.216" fill="black" fill-opacity="0" transform="translate(111.518 200.478) scale(1.33333 -1.33333)"/>
<path d="M352.183 149.857C352.183 83.3993 298.309 29.5233 231.851 29.5233C165.394 29.5233 111.518 83.3993 111.518 149.857C111.518 167.941 115.515 185.089 122.662 200.478H341.041C348.186 185.089 352.183 167.941 352.183 149.857Z" stroke="white" stroke-width="4" stroke-miterlimit="10"/>
<rect width="24.799" height="72.231" fill="black" fill-opacity="0" transform="translate(190.467 127.092) scale(1.33333 -1.33333)"/>
<path d="M190.467 127.092L190.986 71.2211H222.793L223.533 30.7837" stroke="white" stroke-width="2" stroke-miterlimit="10"/>
<rect width="4.934" height="4.933" fill="black" fill-opacity="0" transform="translate(188.026 75.4337) scale(1.33333 -1.33333)"/>
<path d="M194.605 72.1444C194.605 73.9604 193.133 75.4337 191.315 75.4337C189.499 75.4337 188.026 73.9604 188.026 72.1444C188.026 70.3284 189.499 68.8564 191.315 68.8564C193.133 68.8564 194.605 70.3284 194.605 72.1444Z" fill="#2BAAE2"/>
<rect width="4.934" height="4.933" fill="black" fill-opacity="0" transform="translate(188.026 75.4337) scale(1.33333 -1.33333)"/>
<path d="M194.605 72.1444C194.605 73.9604 193.133 75.4337 191.315 75.4337C189.499 75.4337 188.026 73.9604 188.026 72.1444C188.026 70.3284 189.499 68.8564 191.315 68.8564C193.133 68.8564 194.605 70.3284 194.605 72.1444Z" stroke="white" stroke-width="2" stroke-miterlimit="10"/>
<rect width="24.595" height="73.26" fill="black" fill-opacity="0" transform="translate(201.834 127.439) scale(1.33333 -1.33333)"/>
<path d="M201.834 127.439L202.821 81.084H234.628L234.026 29.7587" stroke="white" stroke-width="2" stroke-miterlimit="10"/>
<rect width="4.933" height="4.933" fill="black" fill-opacity="0" transform="translate(199.228 84.9885) scale(1.33333 -1.33333)"/>
<path d="M205.805 81.7005C205.805 83.5165 204.333 84.9885 202.516 84.9885C200.7 84.9885 199.228 83.5165 199.228 81.7005C199.228 79.8845 200.7 78.4111 202.516 78.4111C204.333 78.4111 205.805 79.8845 205.805 81.7005Z" fill="#2BAAE2"/>
<rect width="4.933" height="4.933" fill="black" fill-opacity="0" transform="translate(199.228 84.9885) scale(1.33333 -1.33333)"/>
<path d="M205.805 81.7005C205.805 83.5165 204.333 84.9885 202.516 84.9885C200.7 84.9885 199.228 83.5165 199.228 81.7005C199.228 79.8845 200.7 78.4111 202.516 78.4111C204.333 78.4111 205.805 79.8845 205.805 81.7005Z" stroke="white" stroke-width="2" stroke-miterlimit="10"/>
<rect width="24.411" height="72.491" fill="black" fill-opacity="0" transform="translate(212.684 128.425) scale(1.33333 -1.33333)"/>
<path d="M212.684 128.425V90.9464H244.49L245.232 31.7704" stroke="white" stroke-width="2" stroke-miterlimit="10"/>
<rect width="4.933" height="4.934" fill="black" fill-opacity="0" transform="translate(209.395 94.2358) scale(1.33333 -1.33333)"/>
<path d="M215.972 90.9465C215.972 92.7625 214.5 94.2358 212.683 94.2358C210.867 94.2358 209.395 92.7625 209.395 90.9465C209.395 89.1305 210.867 87.6572 212.683 87.6572C214.5 87.6572 215.972 89.1305 215.972 90.9465Z" fill="#2BAAE2"/>
<rect width="4.933" height="4.934" fill="black" fill-opacity="0" transform="translate(209.395 94.2358) scale(1.33333 -1.33333)"/>
<path d="M215.972 90.9465C215.972 92.7625 214.5 94.2358 212.683 94.2358C210.867 94.2358 209.395 92.7625 209.395 90.9465C209.395 89.1305 210.867 87.6572 212.683 87.6572C214.5 87.6572 215.972 89.1305 215.972 90.9465Z" stroke="white" stroke-width="2" stroke-miterlimit="10"/>
<rect width="66.07" height="40.236" fill="black" fill-opacity="0" transform="translate(113.896 180.393) scale(1.33333 -1.33333)"/>
<path d="M113.896 180.393L150.02 179.759V159.321L176.005 158.845C178.068 156.234 201.989 126.745 201.989 126.745" stroke="white" stroke-width="2" stroke-miterlimit="10"/>
<rect width="57.904" height="30.043" fill="black" fill-opacity="0" transform="translate(113.262 165.816) scale(1.33333 -1.33333)"/>
<path d="M113.262 165.816H137.345V145.378L175.372 144.902C178.158 141.875 190.468 125.759 190.468 125.759" stroke="white" stroke-width="2" stroke-miterlimit="10"/>
<rect width="76.143" height="24.595" fill="black" fill-opacity="0" transform="translate(249.836 183.276) scale(1.33333 -1.33333)"/>
<path d="M249.836 183.276L306.054 182.289V150.483L351.36 151.092" stroke="white" stroke-width="2" stroke-miterlimit="10"/>
<rect width="76.408" height="24.595" fill="black" fill-opacity="0" transform="translate(249.836 171.441) scale(1.33333 -1.33333)"/>
<path d="M249.836 171.441L296.191 170.454V138.647H351.714" stroke="white" stroke-width="2" stroke-miterlimit="10"/>
<rect width="74.882" height="24.125" fill="black" fill-opacity="0" transform="translate(248.85 160.592) scale(1.33333 -1.33333)"/>
<path d="M248.85 160.592H286.329V128.785L348.693 128.425" stroke="white" stroke-width="2" stroke-miterlimit="10"/>
<rect width="5.917" height="5.917" fill="black" fill-opacity="0" transform="translate(303.096 155.659) scale(1.33333 -1.33333)"/>
<path d="M307.04 147.77C304.862 147.77 303.096 149.537 303.096 151.715C303.096 153.894 304.862 155.659 307.04 155.659C309.219 155.659 310.986 153.894 310.986 151.715C310.986 149.537 309.219 147.77 307.04 147.77Z" fill="#2BAAE2"/>
<rect width="5.917" height="5.917" fill="black" fill-opacity="0" transform="translate(303.096 155.659) scale(1.33333 -1.33333)"/>
<path d="M307.04 147.77C304.862 147.77 303.096 149.537 303.096 151.715C303.096 153.894 304.862 155.659 307.04 155.659C309.219 155.659 310.986 153.894 310.986 151.715C310.986 149.537 309.219 147.77 307.04 147.77Z" stroke="white" stroke-width="2" stroke-miterlimit="10"/>
<rect width="5.918" height="5.917" fill="black" fill-opacity="0" transform="translate(293.232 143.824) scale(1.33333 -1.33333)"/>
<path d="M297.178 135.935C294.999 135.935 293.232 137.701 293.232 139.88C293.232 142.059 294.999 143.824 297.178 143.824C299.356 143.824 301.123 142.059 301.123 139.88C301.123 137.701 299.356 135.935 297.178 135.935Z" fill="#2BAAE2"/>
<rect width="5.918" height="5.917" fill="black" fill-opacity="0" transform="translate(293.232 143.824) scale(1.33333 -1.33333)"/>
<path d="M297.178 135.935C294.999 135.935 293.232 137.701 293.232 139.88C293.232 142.059 294.999 143.824 297.178 143.824C299.356 143.824 301.123 142.059 301.123 139.88C301.123 137.701 299.356 135.935 297.178 135.935Z" stroke="white" stroke-width="2" stroke-miterlimit="10"/>
<rect width="5.918" height="5.917" fill="black" fill-opacity="0" transform="translate(283.37 133.961) scale(1.33333 -1.33333)"/>
<path d="M287.315 126.072C285.136 126.072 283.37 127.839 283.37 130.016C283.37 132.196 285.136 133.961 287.315 133.961C289.494 133.961 291.26 132.196 291.26 130.016C291.26 127.839 289.494 126.072 287.315 126.072Z" fill="#2BAAE2"/>
<rect width="5.918" height="5.917" fill="black" fill-opacity="0" transform="translate(283.37 133.961) scale(1.33333 -1.33333)"/>
<path d="M287.315 126.072C285.136 126.072 283.37 127.839 283.37 130.016C283.37 132.196 285.136 133.961 287.315 133.961C289.494 133.961 291.26 132.196 291.26 130.016C291.26 127.839 289.494 126.072 287.315 126.072Z" stroke="white" stroke-width="2" stroke-miterlimit="10"/>
<rect width="0" height="54" fill="black" fill-opacity="0" transform="translate(262.027 107.092) scale(1.33333 -1.33333)"/>
<path d="M262.027 35.0917V107.092" stroke="white" stroke-width="2" stroke-miterlimit="10"/>
<rect width="59" height="0" fill="black" fill-opacity="0" transform="translate(266.027 109.758) scale(1.33333 -1.33333)"/>
<path d="M266.027 109.758H344.694" stroke="white" stroke-width="2" stroke-miterlimit="10"/>
<rect width="0" height="44" fill="black" fill-opacity="0" transform="translate(274.027 96.425) scale(1.33333 -1.33333)"/>
<path d="M274.027 37.7584V96.425" stroke="white" stroke-width="2" stroke-miterlimit="10"/>
<rect width="5.917" height="5.917" fill="black" fill-opacity="0" transform="translate(269.98 103.239) scale(1.33333 -1.33333)"/>
<path d="M277.87 99.2936C277.87 101.472 276.103 103.239 273.926 103.239C271.746 103.239 269.98 101.472 269.98 99.2936C269.98 97.115 271.746 95.3496 273.926 95.3496C276.103 95.3496 277.87 97.115 277.87 99.2936Z" fill="#2BAAE2"/>
<rect width="5.917" height="5.917" fill="black" fill-opacity="0" transform="translate(269.98 103.239) scale(1.33333 -1.33333)"/>
<path d="M277.87 99.2936C277.87 101.472 276.103 103.239 273.926 103.239C271.746 103.239 269.98 101.472 269.98 99.2936C269.98 97.115 271.746 95.3496 273.926 95.3496C276.103 95.3496 277.87 97.115 277.87 99.2936Z" stroke="white" stroke-width="2" stroke-miterlimit="10"/>
<rect width="48" height="0" fill="black" fill-opacity="0" transform="translate(278.027 99.0917) scale(1.33333 -1.33333)"/>
<path d="M278.027 99.0917H342.027" stroke="white" stroke-width="2" stroke-miterlimit="10"/>
<rect width="0" height="32" fill="black" fill-opacity="0" transform="translate(286.027 85.7584) scale(1.33333 -1.33333)"/>
<path d="M286.027 43.0917V85.7584" stroke="white" stroke-width="2" stroke-miterlimit="10"/>
<rect width="5.917" height="5.917" fill="black" fill-opacity="0" transform="translate(281.98 92.5723) scale(1.33333 -1.33333)"/>
<path d="M289.87 88.6269C289.87 90.8056 288.103 92.5723 285.926 92.5723C283.746 92.5723 281.98 90.8056 281.98 88.6269C281.98 86.4483 283.746 84.6829 285.926 84.6829C288.103 84.6829 289.87 86.4483 289.87 88.6269Z" fill="#2BAAE2"/>
<rect width="5.917" height="5.917" fill="black" fill-opacity="0" transform="translate(281.98 92.5723) scale(1.33333 -1.33333)"/>
<path d="M289.87 88.6269C289.87 90.8056 288.103 92.5723 285.926 92.5723C283.746 92.5723 281.98 90.8056 281.98 88.6269C281.98 86.4483 283.746 84.6829 285.926 84.6829C288.103 84.6829 289.87 86.4483 289.87 88.6269Z" stroke="white" stroke-width="2" stroke-miterlimit="10"/>
<rect width="34" height="0" fill="black" fill-opacity="0" transform="translate(290.027 88.425) scale(1.33333 -1.33333)"/>
<path d="M290.027 88.425H335.36" stroke="white" stroke-width="2" stroke-miterlimit="10"/>
<rect width="4.933" height="4.933" fill="black" fill-opacity="0" transform="translate(220.139 74.8166) scale(1.33333 -1.33333)"/>
<path d="M226.716 71.5286C226.716 73.3446 225.244 74.8166 223.428 74.8166C221.611 74.8166 220.139 73.3446 220.139 71.5286C220.139 69.7126 221.611 68.2393 223.428 68.2393C225.244 68.2393 226.716 69.7126 226.716 71.5286Z" fill="#2BAAE2"/>
<rect width="4.933" height="4.933" fill="black" fill-opacity="0" transform="translate(220.139 74.8166) scale(1.33333 -1.33333)"/>
<path d="M226.716 71.5286C226.716 73.3446 225.244 74.8166 223.428 74.8166C221.611 74.8166 220.139 73.3446 220.139 71.5286C220.139 69.7126 221.611 68.2393 223.428 68.2393C225.244 68.2393 226.716 69.7126 226.716 71.5286Z" stroke="white" stroke-width="2" stroke-miterlimit="10"/>
<rect width="4.934" height="4.934" fill="black" fill-opacity="0" transform="translate(231.338 84.3732) scale(1.33333 -1.33333)"/>
<path d="M237.917 81.0839C237.917 82.8999 236.445 84.3732 234.627 84.3732C232.811 84.3732 231.338 82.8999 231.338 81.0839C231.338 79.2679 232.811 77.7946 234.627 77.7946C236.445 77.7946 237.917 79.2679 237.917 81.0839Z" fill="#2BAAE2"/>
<rect width="4.934" height="4.934" fill="black" fill-opacity="0" transform="translate(231.338 84.3732) scale(1.33333 -1.33333)"/>
<path d="M237.917 81.0839C237.917 82.8999 236.445 84.3732 234.627 84.3732C232.811 84.3732 231.338 82.8999 231.338 81.0839C231.338 79.2679 232.811 77.7946 234.627 77.7946C236.445 77.7946 237.917 79.2679 237.917 81.0839Z" stroke="white" stroke-width="2" stroke-miterlimit="10"/>
<rect width="4.934" height="4.933" fill="black" fill-opacity="0" transform="translate(134.693 148.767) scale(1.33333 -1.33333)"/>
<path d="M141.272 145.478C141.272 147.294 139.8 148.767 137.982 148.767C136.166 148.767 134.693 147.294 134.693 145.478C134.693 143.662 136.166 142.19 137.982 142.19C139.8 142.19 141.272 143.662 141.272 145.478Z" fill="#2BAAE2"/>
<rect width="4.934" height="4.933" fill="black" fill-opacity="0" transform="translate(134.693 148.767) scale(1.33333 -1.33333)"/>
<path d="M141.272 145.478C141.272 147.294 139.8 148.767 137.982 148.767C136.166 148.767 134.693 147.294 134.693 145.478C134.693 143.662 136.166 142.19 137.982 142.19C139.8 142.19 141.272 143.662 141.272 145.478Z" stroke="white" stroke-width="2" stroke-miterlimit="10"/>
<rect width="4.934" height="4.933" fill="black" fill-opacity="0" transform="translate(146.693 163.434) scale(1.33333 -1.33333)"/>
<path d="M153.272 160.144C153.272 161.96 151.8 163.434 149.982 163.434C148.166 163.434 146.693 161.96 146.693 160.144C146.693 158.328 148.166 156.856 149.982 156.856C151.8 156.856 153.272 158.328 153.272 160.144Z" fill="#2BAAE2"/>
<rect width="4.934" height="4.933" fill="black" fill-opacity="0" transform="translate(146.693 163.434) scale(1.33333 -1.33333)"/>
<path d="M153.272 160.144C153.272 161.96 151.8 163.434 149.982 163.434C148.166 163.434 146.693 161.96 146.693 160.144C146.693 158.328 148.166 156.856 149.982 156.856C151.8 156.856 153.272 158.328 153.272 160.144Z" stroke="white" stroke-width="2" stroke-miterlimit="10"/>
<rect width="0" height="37" fill="black" fill-opacity="0" transform="translate(137.583 143.092) scale(1.33333 -1.33333)"/>
<path d="M137.583 93.7584V143.092" stroke="white" stroke-width="2" stroke-miterlimit="10"/>
<rect width="41" height="0" fill="black" fill-opacity="0" transform="translate(135.36 91.0917) scale(1.33333 -1.33333)"/>
<path d="M190.027 91.0917H135.36" stroke="white" stroke-width="2" stroke-miterlimit="10"/>
<rect width="0" height="35" fill="black" fill-opacity="0" transform="translate(151.36 145.758) scale(1.33333 -1.33333)"/>
<path d="M151.36 99.0917V145.758" stroke="white" stroke-width="2" stroke-miterlimit="10"/>
<rect width="31" height="0" fill="black" fill-opacity="0" transform="translate(148.693 99.0917) scale(1.33333 -1.33333)"/>
<path d="M190.027 99.0917H148.693" stroke="white" stroke-width="2" stroke-miterlimit="10"/>
<rect width="0" height="25" fill="black" fill-opacity="0" transform="translate(162.027 144.425) scale(1.33333 -1.33333)"/>
<path d="M162.027 111.092V144.425" stroke="white" stroke-width="2" stroke-miterlimit="10"/>
<rect width="22.997" height="0" fill="black" fill-opacity="0" transform="translate(159.805 111.092) scale(1.33333 -1.33333)"/>
<path d="M190.467 111.092H159.805" stroke="white" stroke-width="2" stroke-miterlimit="10"/>
<rect width="4.934" height="4.933" fill="black" fill-opacity="0" transform="translate(133.359 96.767) scale(1.33333 -1.33333)"/>
<path d="M139.938 93.4777C139.938 95.2937 138.466 96.767 136.649 96.767C134.833 96.767 133.359 95.2937 133.359 93.4777C133.359 91.6617 134.833 90.1897 136.649 90.1897C138.466 90.1897 139.938 91.6617 139.938 93.4777Z" fill="#2BAAE2"/>
<rect width="4.934" height="4.933" fill="black" fill-opacity="0" transform="translate(133.359 96.767) scale(1.33333 -1.33333)"/>
<path d="M139.938 93.4777C139.938 95.2937 138.466 96.767 136.649 96.767C134.833 96.767 133.359 95.2937 133.359 93.4777C133.359 91.6617 134.833 90.1897 136.649 90.1897C138.466 90.1897 139.938 91.6617 139.938 93.4777Z" stroke="white" stroke-width="2" stroke-miterlimit="10"/>
<rect width="4.934" height="4.933" fill="black" fill-opacity="0" transform="translate(148.026 103.434) scale(1.33333 -1.33333)"/>
<path d="M154.605 100.144C154.605 101.96 153.133 103.434 151.316 103.434C149.5 103.434 148.026 101.96 148.026 100.144C148.026 98.3284 149.5 96.8564 151.316 96.8564C153.133 96.8564 154.605 98.3284 154.605 100.144Z" fill="#2BAAE2"/>
<rect width="4.934" height="4.933" fill="black" fill-opacity="0" transform="translate(148.026 103.434) scale(1.33333 -1.33333)"/>
<path d="M154.605 100.144C154.605 101.96 153.133 103.434 151.316 103.434C149.5 103.434 148.026 101.96 148.026 100.144C148.026 98.3284 149.5 96.8564 151.316 96.8564C153.133 96.8564 154.605 98.3284 154.605 100.144Z" stroke="white" stroke-width="2" stroke-miterlimit="10"/>
<rect width="4.934" height="4.933" fill="black" fill-opacity="0" transform="translate(158.693 114.1) scale(1.33333 -1.33333)"/>
<path d="M165.272 110.811C165.272 112.627 163.8 114.1 161.982 114.1C160.166 114.1 158.693 112.627 158.693 110.811C158.693 108.995 160.166 107.523 161.982 107.523C163.8 107.523 165.272 108.995 165.272 110.811Z" fill="#2BAAE2"/>
<rect width="4.934" height="4.933" fill="black" fill-opacity="0" transform="translate(158.693 114.1) scale(1.33333 -1.33333)"/>
<path d="M165.272 110.811C165.272 112.627 163.8 114.1 161.982 114.1C160.166 114.1 158.693 112.627 158.693 110.811C158.693 108.995 160.166 107.523 161.982 107.523C163.8 107.523 165.272 108.995 165.272 110.811Z" stroke="white" stroke-width="2" stroke-miterlimit="10"/>
<rect width="0" height="26" fill="black" fill-opacity="0" transform="translate(156.693 89.7584) scale(1.33333 -1.33333)"/>
<path d="M156.693 55.0917V89.7584" stroke="white" stroke-width="2" stroke-miterlimit="10"/>
<rect width="0" height="34" fill="black" fill-opacity="0" transform="translate(174.027 89.7584) scale(1.33333 -1.33333)"/>
<path d="M174.027 44.4251V89.7584" stroke="white" stroke-width="2" stroke-miterlimit="10"/>
<rect width="18" height="0" fill="black" fill-opacity="0" transform="translate(114.027 129.758) scale(1.33333 -1.33333)"/>
<path d="M114.027 129.758H138.027" stroke="white" stroke-width="2" stroke-miterlimit="10"/>
<rect width="15" height="0" fill="black" fill-opacity="0" transform="translate(116.693 116.425) scale(1.33333 -1.33333)"/>
<path d="M116.693 116.425H136.693" stroke="white" stroke-width="2" stroke-miterlimit="10"/>
<rect width="5.917" height="5.917" fill="black" fill-opacity="0" transform="translate(259.314 113.906) scale(1.33333 -1.33333)"/>
<path d="M267.203 109.96C267.203 112.139 265.437 113.906 263.259 113.906C261.079 113.906 259.314 112.139 259.314 109.96C259.314 107.782 261.079 106.016 263.259 106.016C265.437 106.016 267.203 107.782 267.203 109.96Z" fill="#2BAAE2"/>
<rect width="5.917" height="5.917" fill="black" fill-opacity="0" transform="translate(259.314 113.906) scale(1.33333 -1.33333)"/>
<path d="M267.203 109.96C267.203 112.139 265.437 113.906 263.259 113.906C261.079 113.906 259.314 112.139 259.314 109.96C259.314 107.782 261.079 106.016 263.259 106.016C265.437 106.016 267.203 107.782 267.203 109.96Z" stroke="white" stroke-width="2" stroke-miterlimit="10"/>
<rect width="0" height="70" fill="black" fill-opacity="0" transform="translate(249.134 183.092) scale(1.33333 -1.33333)"/>
<path d="M249.134 89.7584V183.092" stroke="white" stroke-width="2" stroke-miterlimit="10"/>
<rect width="4.934" height="4.933" fill="black" fill-opacity="0" transform="translate(242.839 93.6193) scale(1.33333 -1.33333)"/>
<path d="M249.418 90.33C249.418 92.146 247.946 93.6193 246.129 93.6193C244.313 93.6193 242.839 92.146 242.839 90.33C242.839 88.514 244.313 87.042 246.129 87.042C247.946 87.042 249.418 88.514 249.418 90.33Z" fill="#2BAAE2"/>
<rect width="4.934" height="4.933" fill="black" fill-opacity="0" transform="translate(242.839 93.6193) scale(1.33333 -1.33333)"/>
<path d="M249.418 90.33C249.418 92.146 247.946 93.6193 246.129 93.6193C244.313 93.6193 242.839 92.146 242.839 90.33C242.839 88.514 244.313 87.042 246.129 87.042C247.946 87.042 249.418 88.514 249.418 90.33Z" stroke="white" stroke-width="2" stroke-miterlimit="10"/>
<rect width="4.933" height="4.933" fill="black" fill-opacity="0" transform="translate(187.228 128.988) scale(1.33333 -1.33333)"/>
<path d="M193.805 125.7C193.805 127.516 192.333 128.988 190.516 128.988C188.7 128.988 187.228 127.516 187.228 125.7C187.228 123.884 188.7 122.411 190.516 122.411C192.333 122.411 193.805 123.884 193.805 125.7Z" fill="#2BAAE2"/>
<rect width="4.933" height="4.933" fill="black" fill-opacity="0" transform="translate(187.228 128.988) scale(1.33333 -1.33333)"/>
<path d="M193.805 125.7C193.805 127.516 192.333 128.988 190.516 128.988C188.7 128.988 187.228 127.516 187.228 125.7C187.228 123.884 188.7 122.411 190.516 122.411C192.333 122.411 193.805 123.884 193.805 125.7Z" stroke="white" stroke-width="2" stroke-miterlimit="10"/>
<rect width="4.933" height="4.933" fill="black" fill-opacity="0" transform="translate(197.894 130.322) scale(1.33333 -1.33333)"/>
<path d="M204.471 127.034C204.471 128.85 202.999 130.322 201.182 130.322C199.366 130.322 197.894 128.85 197.894 127.034C197.894 125.218 199.366 123.744 201.182 123.744C202.999 123.744 204.471 125.218 204.471 127.034Z" fill="#2BAAE2"/>
<rect width="4.933" height="4.933" fill="black" fill-opacity="0" transform="translate(197.894 130.322) scale(1.33333 -1.33333)"/>
<path d="M204.471 127.034C204.471 128.85 202.999 130.322 201.182 130.322C199.366 130.322 197.894 128.85 197.894 127.034C197.894 125.218 199.366 123.744 201.182 123.744C202.999 123.744 204.471 125.218 204.471 127.034Z" stroke="white" stroke-width="2" stroke-miterlimit="10"/>
<rect width="4.933" height="4.934" fill="black" fill-opacity="0" transform="translate(209.395 132.903) scale(1.33333 -1.33333)"/>
<path d="M215.972 129.613C215.972 131.429 214.5 132.903 212.683 132.903C210.867 132.903 209.395 131.429 209.395 129.613C209.395 127.797 210.867 126.324 212.683 126.324C214.5 126.324 215.972 127.797 215.972 129.613Z" fill="#2BAAE2"/>
<rect width="4.933" height="4.934" fill="black" fill-opacity="0" transform="translate(209.395 132.903) scale(1.33333 -1.33333)"/>
<path d="M215.972 129.613C215.972 131.429 214.5 132.903 212.683 132.903C210.867 132.903 209.395 131.429 209.395 129.613C209.395 127.797 210.867 126.324 212.683 126.324C214.5 126.324 215.972 127.797 215.972 129.613Z" stroke="white" stroke-width="2" stroke-miterlimit="10"/>
<rect width="65.093" height="42.976" fill="black" fill-opacity="0" transform="translate(125.01 189.726) scale(1.33333 -1.33333)"/>
<path d="M125.01 189.726L161.134 189.093V168.654L187.119 168.178C189.182 165.567 211.8 132.425 211.8 132.425" stroke="white" stroke-width="2" stroke-miterlimit="10"/>
<rect width="28" height="0" fill="black" fill-opacity="0" transform="translate(211.801 105.758) scale(1.33333 -1.33333)"/>
<path d="M211.801 105.758H249.134" stroke="white" stroke-width="2" stroke-miterlimit="10"/>
<rect width="27" height="0" fill="black" fill-opacity="0" transform="translate(211.801 113.758) scale(1.33333 -1.33333)"/>
<path d="M211.801 113.758H247.801" stroke="white" stroke-width="2" stroke-miterlimit="10"/>
<rect width="32" height="14" fill="black" fill-opacity="0" transform="translate(206.467 159.092) scale(1.33333 -1.33333)"/>
<path d="M249.134 159.092L206.467 140.425" stroke="white" stroke-width="2" stroke-miterlimit="10"/>
<rect width="37" height="14" fill="black" fill-opacity="0" transform="translate(199.801 171.092) scale(1.33333 -1.33333)"/>
<path d="M249.134 171.092L199.801 152.425" stroke="white" stroke-width="2" stroke-miterlimit="10"/>
<rect width="46" height="10" fill="black" fill-opacity="0" transform="translate(186.467 181.758) scale(1.33333 -1.33333)"/>
<path d="M247.801 181.758L186.467 168.425" stroke="white" stroke-width="2" stroke-miterlimit="10"/>
<rect width="0" height="34" fill="black" fill-opacity="0" transform="translate(263.801 159.092) scale(1.33333 -1.33333)"/>
<path d="M263.801 113.758V159.092" stroke="white" stroke-width="2" stroke-miterlimit="10"/>
<rect width="4.933" height="4.934" fill="black" fill-opacity="0" transform="translate(196.062 155.569) scale(1.33333 -1.33333)"/>
<path d="M202.639 152.28C202.639 154.096 201.167 155.569 199.35 155.569C197.534 155.569 196.062 154.096 196.062 152.28C196.062 150.464 197.534 148.991 199.35 148.991C201.167 148.991 202.639 150.464 202.639 152.28Z" fill="#2BAAE2"/>
<rect width="4.933" height="4.934" fill="black" fill-opacity="0" transform="translate(196.062 155.569) scale(1.33333 -1.33333)"/>
<path d="M202.639 152.28C202.639 154.096 201.167 155.569 199.35 155.569C197.534 155.569 196.062 154.096 196.062 152.28C196.062 150.464 197.534 148.991 199.35 148.991C201.167 148.991 202.639 150.464 202.639 152.28Z" stroke="white" stroke-width="2" stroke-miterlimit="10"/>
<rect width="4.933" height="4.933" fill="black" fill-opacity="0" transform="translate(260.561 162.322) scale(1.33333 -1.33333)"/>
<path d="M267.138 159.034C267.138 160.85 265.666 162.322 263.849 162.322C262.033 162.322 260.561 160.85 260.561 159.034C260.561 157.218 262.033 155.744 263.849 155.744C265.666 155.744 267.138 157.218 267.138 159.034Z" fill="#2BAAE2"/>
<rect width="4.933" height="4.933" fill="black" fill-opacity="0" transform="translate(260.561 162.322) scale(1.33333 -1.33333)"/>
<path d="M267.138 159.034C267.138 160.85 265.666 162.322 263.849 162.322C262.033 162.322 260.561 160.85 260.561 159.034C260.561 157.218 262.033 155.744 263.849 155.744C265.666 155.744 267.138 157.218 267.138 159.034Z" stroke="white" stroke-width="2" stroke-miterlimit="10"/>
<rect width="5.898" height="10.626" fill="black" fill-opacity="0" transform="translate(174.471 254.185) scale(1.33333 -1.33333)"/>
<path d="M174.795 247.253H182.132V246.929H174.795V240.321H182.295V240.017H174.471V254.185H174.512H182.335V253.881H174.795V247.253Z" stroke="#2AABE2" stroke-miterlimit="10"/>
<rect width="7.38197" height="10.8767" fill="black" fill-opacity="0" transform="translate(189.713 254.328) scale(1.33333 -1.33333)"/>
<path d="M198.835 243.139L199.139 243.077L199.119 242.916C198.429 239.247 192.592 238.903 190.524 241.577C189.997 242.268 189.775 243.099 189.856 243.949C190.22 249.24 198.227 245.388 199.139 249.605C199.727 252.423 197.051 254.023 194.579 254.023C192.652 254.023 190.28 252.948 190.057 250.821L190.037 250.679L189.713 250.72L189.733 250.861C189.976 253.152 192.491 254.328 194.557 254.328C197.253 254.328 200.112 252.544 199.463 249.544C198.491 245.003 190.524 248.895 190.16 243.929C190.099 243.139 190.28 242.389 190.788 241.761C191.639 240.645 193.159 240.16 194.497 240.139C195.775 240.119 197.172 240.503 198.044 241.436C198.449 241.883 198.693 242.389 198.815 242.977L198.835 243.139Z" stroke="#2AABE2" stroke-miterlimit="10"/>
<rect width="7.586" height="10.688" fill="black" fill-opacity="0" transform="translate(205.402 254.247) scale(1.33333 -1.33333)"/>
<path d="M210.611 254.247V240.321H215.517V239.996H205.402V240.321H210.307V254.247H210.611Z" stroke="#2AABE2" stroke-miterlimit="10"/>
<rect width="0.578" height="0.578" fill="black" fill-opacity="0" transform="translate(221.921 254.247) scale(1.33333 -1.33333)"/>
<path d="M222.286 253.476C222.084 253.476 221.921 253.639 221.921 253.881C221.921 254.064 222.084 254.247 222.286 254.247C222.529 254.247 222.692 254.064 222.692 253.881C222.692 253.639 222.529 253.476 222.286 253.476Z" stroke="#2AABE2" stroke-miterlimit="10"/>
<rect width="2.843" height="10.642" fill="black" fill-opacity="0" transform="translate(242.738 254.186) scale(1.33333 -1.33333)"/>
<path d="M245.98 240.827L246.264 240.361H246.284L246.224 240.929V254.186H246.528V239.997H246.203L242.738 244.842L242.96 245.003L245.98 240.827Z" stroke="#2AABE2" stroke-miterlimit="10"/>
<rect width="7.34855" height="10.672" fill="black" fill-opacity="0" transform="translate(254.139 254.186) scale(1.33333 -1.33333)"/>
<path d="M259.034 248.774C252.912 248.774 252.912 240.281 259.034 240.281C265.175 240.281 265.175 248.774 259.034 248.774ZM263.128 247.151C264.992 244.475 263.635 239.957 259.034 239.957C252.507 239.977 252.507 249.098 259.034 249.098C260.047 249.098 260.818 248.895 261.506 248.53L262.236 248.025H262.256L261.466 248.975L257.798 254.186H258.162L263.128 247.151Z" stroke="#2AABE2" stroke-miterlimit="10"/>
<rect width="7.34855" height="10.672" fill="black" fill-opacity="0" transform="translate(270.82 254.186) scale(1.33333 -1.33333)"/>
<path d="M275.715 248.774C269.594 248.774 269.594 240.281 275.715 240.281C281.857 240.281 281.857 248.774 275.715 248.774ZM279.81 247.151C281.674 244.475 280.317 239.957 275.715 239.957C269.189 239.977 269.189 249.098 275.715 249.098C276.729 249.098 277.499 248.895 278.187 248.53L278.918 248.025H278.938L278.147 248.975L274.479 254.186H274.843L279.81 247.151Z" stroke="#2AABE2" stroke-miterlimit="10"/>
<rect width="7.3493" height="10.657" fill="black" fill-opacity="0" transform="translate(286.967 254.186) scale(1.33333 -1.33333)"/>
<path d="M291.87 245.389C297.991 245.389 297.991 253.861 291.87 253.861C285.749 253.861 285.749 245.389 291.87 245.389ZM287.775 246.99C285.911 249.686 287.269 254.186 291.87 254.186C298.398 254.186 298.398 245.065 291.87 245.065C290.857 245.065 290.087 245.267 289.398 245.633L288.667 246.138L288.647 246.118L289.438 245.186L293.127 239.977H292.742L287.775 246.99Z" stroke="#2AABE2" stroke-miterlimit="10"/>
<rect width="67.249" height="29.91" fill="black" fill-opacity="0" transform="translate(374.503 247.891) scale(1.33333 -1.33333)"/>
<path d="M464.169 247.891H374.503V208.011H464.169L446.37 227.951L464.169 247.891Z" fill="#1C76BC"/>
<rect width="67.249" height="29.91" fill="black" fill-opacity="0" transform="translate(0 247.891) scale(1.33333 -1.33333)"/>
<path d="M0 208.011H89.6653V247.891H0L17.7973 227.951L0 208.011Z" fill="#1C76BC"/>
<path d="M419.335 232.632H48.3818V183.389H419.335V232.632Z" fill="#1C76BC"/>
<path d="M200.976 209.404C200.686 213.41 199.202 216.565 196.526 218.866C193.866 221.168 190.353 222.319 185.989 222.319C181.215 222.319 177.455 220.716 174.71 217.511C171.982 214.288 170.618 209.872 170.618 204.263V201.987C170.618 198.406 171.249 195.252 172.51 192.524C173.772 189.796 175.571 187.707 177.907 186.258C180.26 184.792 182.988 184.059 186.091 184.059C190.387 184.059 193.849 185.21 196.474 187.511C199.1 189.813 200.618 193.044 201.027 197.204H193.354C193.167 194.8 192.493 193.061 191.334 191.987C190.191 190.896 188.444 190.35 186.091 190.35C183.533 190.35 181.615 191.271 180.336 193.112C179.075 194.937 178.427 197.775 178.393 201.629V204.442C178.393 208.466 178.998 211.407 180.209 213.265C181.436 215.124 183.363 216.053 185.989 216.053C188.359 216.053 190.123 215.516 191.283 214.442C192.459 213.351 193.133 211.671 193.303 209.404H200.976ZM204.377 207.716C204.377 204.971 204.906 202.524 205.963 200.376C207.02 198.227 208.537 196.565 210.515 195.388C212.51 194.212 214.82 193.624 217.446 193.624C221.18 193.624 224.223 194.766 226.576 197.051C228.946 199.336 230.268 202.439 230.54 206.36L230.592 208.253C230.592 212.498 229.407 215.908 227.037 218.483C224.667 221.04 221.487 222.319 217.497 222.319C213.507 222.319 210.319 221.04 207.932 218.483C205.562 215.925 204.377 212.447 204.377 208.048V207.716ZM211.768 208.253C211.768 210.878 212.263 212.89 213.252 214.288C214.241 215.67 215.656 216.36 217.497 216.36C219.287 216.36 220.685 215.678 221.691 214.314C222.697 212.933 223.2 210.734 223.2 207.716C223.2 205.141 222.697 203.146 221.691 201.731C220.685 200.316 219.27 199.608 217.446 199.608C215.639 199.608 214.241 200.316 213.252 201.731C212.263 203.129 211.768 205.303 211.768 208.253ZM249.415 208.176H243.302V221.808H235.63V184.57H249.466C253.865 184.57 257.258 185.551 259.645 187.511C262.032 189.472 263.225 192.243 263.225 195.823C263.225 198.364 262.671 200.486 261.563 202.191C260.472 203.879 258.809 205.226 256.576 206.232L264.632 221.45V221.808H256.397L249.415 208.176ZM243.302 201.961H249.492C251.418 201.961 252.91 201.475 253.967 200.503C255.024 199.515 255.553 198.159 255.553 196.437C255.553 194.681 255.05 193.3 254.044 192.294C253.055 191.288 251.529 190.785 249.466 190.785H243.302V201.961ZM291.486 205.67H276.755V215.644H294.043V221.808H269.082V184.57H293.992V190.785H276.755V199.659H291.486V205.67Z" fill="white"/>
</svg>
