<svg width="351" height="148" viewBox="0 0 351 148" fill="none" xmlns="http://www.w3.org/2000/svg">
<rect width="263.093" height="110.282" fill="black" fill-opacity="0" transform="translate(0 147.042) scale(1.33333 -1.33333)"/>
<path d="M70.0437 77.3141C69.4201 85.9343 66.2288 92.7204 60.4698 97.6724C54.7474 102.624 47.191 105.1 37.8005 105.1C27.5296 105.1 19.4413 101.652 13.5355 94.7562C7.66647 87.8234 4.73194 78.3228 4.73194 66.2545V61.3575C4.73194 53.6544 6.08916 46.8683 8.8036 40.9992C11.518 35.1301 15.388 30.6366 20.4134 27.5187C25.4754 24.3641 31.3445 22.7867 38.0206 22.7867C47.2643 22.7867 54.7107 25.2628 60.3597 30.2148C66.0087 35.1668 69.2734 42.118 70.1537 51.0683H53.647C53.2435 45.8962 51.7945 42.1547 49.3002 39.8437C46.8425 37.4961 43.0826 36.3223 38.0206 36.3223C32.5183 36.3223 28.3916 38.3031 25.6405 42.2647C22.9261 46.1897 21.5321 52.2972 21.4588 60.5872V66.6397C21.4588 75.2966 22.761 81.6242 25.3654 85.6225C28.0065 89.6208 32.1515 91.6199 37.8005 91.6199C42.8992 91.6199 46.6958 90.4645 49.1901 88.1535C51.7212 85.8059 53.1701 82.1927 53.5369 77.3141H70.0437Z" fill="#231F20"/>
<rect width="63.508" height="63.509" fill="black" fill-opacity="0" transform="translate(102.102 113.1) scale(1.33333 -1.33333)"/>
<rect width="63.508" height="63.509" fill="black" fill-opacity="0" transform="translate(102.102 113.1) scale(1.33333 -1.33333)"/>
<rect width="45.449" height="45.449" fill="black" fill-opacity="0" transform="translate(114.396 102.224) scale(1.33333 -1.33333)"/>
<path d="M144.696 88.509C135.536 88.509 128.111 81.085 128.111 71.925C128.111 62.7664 135.536 55.3397 144.696 55.3397C153.855 55.3397 161.28 62.7664 161.28 71.925C161.28 81.085 153.855 88.509 144.696 88.509ZM144.696 41.625C127.963 41.625 114.396 55.1917 114.396 71.925C114.396 88.6584 127.963 102.224 144.696 102.224C161.43 102.224 174.995 88.6584 174.995 71.925C174.995 55.1917 161.43 41.625 144.696 41.625Z" fill="#28AAE1"/>
<path d="M150.485 44.9108H138.907V28.4215H150.485V44.9108Z" fill="#28AAE1"/>
<path d="M150.229 113.1H138.653V96.6108H150.229V113.1Z" fill="#28AAE1"/>
<rect width="14.885" height="14.885" fill="black" fill-opacity="0" transform="translate(110.755 56.4861) scale(1.33333 -1.33333)"/>
<path d="M130.602 48.2981L122.414 56.4861L110.755 44.8248L118.942 36.6394L130.602 48.2981Z" fill="#28AAE1"/>
<rect width="14.885" height="14.885" fill="black" fill-opacity="0" transform="translate(158.792 104.883) scale(1.33333 -1.33333)"/>
<path d="M178.638 96.6959L170.449 104.883L158.792 93.2239L166.978 85.0359L178.638 96.6959Z" fill="#28AAE1"/>
<path d="M118.591 76.4214H102.102V64.8441H118.591V76.4214Z" fill="#28AAE1"/>
<path d="M186.779 76.6775H170.29V65.1001H186.779V76.6775Z" fill="#28AAE1"/>
<rect width="14.884" height="14.885" fill="black" fill-opacity="0" transform="translate(110.32 104.574) scale(1.33333 -1.33333)"/>
<path d="M121.978 84.7277L130.165 92.9144L118.506 104.574L110.32 96.3877L121.978 84.7277Z" fill="#28AAE1"/>
<rect width="14.886" height="14.885" fill="black" fill-opacity="0" transform="translate(158.715 56.5374) scale(1.33333 -1.33333)"/>
<path d="M170.376 36.6907L178.563 44.8774L166.904 56.5374L158.715 48.352L170.376 36.6907Z" fill="#28AAE1"/>
<path d="M251.601 74.673H238.45V104H221.943V23.8872H251.711C261.175 23.8872 268.474 25.9964 273.61 30.2148C278.745 34.4332 281.313 40.394 281.313 48.0971C281.313 53.5627 280.121 58.1295 277.736 61.7977C275.389 65.4292 271.812 68.3271 267.007 70.4913L284.339 103.23V104H266.622L251.601 74.673ZM238.45 61.3025H251.766C255.911 61.3025 259.12 60.2571 261.395 58.1662C263.669 56.0387 264.806 53.1225 264.806 49.4176C264.806 45.6394 263.724 42.6682 261.56 40.504C259.432 38.3398 256.149 37.2577 251.711 37.2577H238.45V61.3025ZM342.113 69.2808H310.42V90.7396H347.615V104H293.913V23.8872H347.505V37.2577H310.42V56.3505H342.113V69.2808Z" fill="#231F20"/>
<path d="M14.1674 137.814C14.0157 139.112 13.5352 140.116 12.7259 140.824C11.9223 141.526 10.8517 141.877 9.51411 141.877C8.06417 141.877 6.90085 141.358 6.02414 140.318C5.15306 139.278 4.71751 137.887 4.71751 136.145V134.965C4.71751 133.824 4.91983 132.821 5.32446 131.955C5.73472 131.09 6.31357 130.427 7.06102 129.966C7.80847 129.5 8.67394 129.266 9.65742 129.266C10.9612 129.266 12.0065 129.632 12.7933 130.362C13.5801 131.087 14.0382 132.093 14.1674 133.38H12.5404C12.3999 132.402 12.0937 131.694 11.6216 131.256C11.1551 130.817 10.5004 130.598 9.65742 130.598C8.62336 130.598 7.81128 130.98 7.22119 131.745C6.63671 132.509 6.34448 133.597 6.34448 135.007V136.196C6.34448 137.528 6.62266 138.587 7.17904 139.374C7.73541 140.161 8.51377 140.554 9.51411 140.554C10.4133 140.554 11.1017 140.352 11.5794 139.947C12.0627 139.537 12.3831 138.826 12.5404 137.814H14.1674ZM25.8259 135.968C25.8259 137.171 25.6236 138.222 25.219 139.121C24.8144 140.014 24.2411 140.697 23.4993 141.169C22.7575 141.641 21.892 141.877 20.9029 141.877C19.9363 141.877 19.0792 141.641 18.3318 141.169C17.5843 140.692 17.0027 140.014 16.5868 139.138C16.1765 138.255 15.9658 137.235 15.9545 136.078V135.193C15.9545 134.012 16.1597 132.97 16.5699 132.065C16.9802 131.16 17.559 130.469 18.3065 129.991C19.0596 129.508 19.9194 129.266 20.886 129.266C21.8695 129.266 22.735 129.505 23.4824 129.983C24.2355 130.455 24.8144 131.143 25.219 132.048C25.6236 132.947 25.8259 133.996 25.8259 135.193V135.968ZM24.2158 135.176C24.2158 133.72 23.9236 132.605 23.3391 131.829C22.7547 131.048 21.937 130.657 20.886 130.657C19.8632 130.657 19.0567 131.048 18.4667 131.829C17.8822 132.605 17.5815 133.684 17.5647 135.066V135.968C17.5647 137.379 17.8597 138.489 18.4498 139.298C19.0455 140.102 19.8632 140.503 20.9029 140.503C21.9482 140.503 22.7575 140.124 23.3307 139.365C23.9039 138.601 24.199 137.508 24.2158 136.086V135.176ZM30.3444 129.435L34.357 139.45L38.3696 129.435H40.4686V141.709H38.8501V136.929L39.0018 131.77L34.9724 141.709H33.7332L29.7121 131.795L29.8723 136.929V141.709H28.2537V129.435H30.3444ZM44.9449 136.904V141.709H43.3264V129.435H47.8532C49.1964 129.435 50.2473 129.778 51.006 130.463C51.7703 131.149 52.1525 132.057 52.1525 133.186C52.1525 134.378 51.7787 135.297 51.0313 135.943C50.2895 136.583 49.2245 136.904 47.8364 136.904H44.9449ZM44.9449 135.58H47.8532C48.7187 135.58 49.3818 135.378 49.8427 134.973C50.3035 134.563 50.5339 133.973 50.5339 133.203C50.5339 132.473 50.3035 131.888 49.8427 131.45C49.3818 131.011 48.7496 130.784 47.9459 130.767H44.9449V135.58ZM62.8584 129.435V137.781C62.8528 138.938 62.4875 139.885 61.7625 140.621C61.0432 141.358 60.0653 141.771 58.8289 141.861L58.399 141.877C57.0558 141.877 55.9852 141.515 55.1872 140.79C54.3892 140.065 53.9846 139.067 53.9733 137.797V129.435H55.575V137.747C55.575 138.635 55.8195 139.326 56.3084 139.821C56.7973 140.31 57.4942 140.554 58.399 140.554C59.315 140.554 60.0147 140.31 60.498 139.821C60.987 139.332 61.2314 138.643 61.2314 137.755V129.435H62.8584ZM73.8931 130.767H69.9479V141.709H68.3378V130.767H64.4011V129.435H73.8931V130.767ZM82.6518 136.036H77.3325V140.385H83.5116V141.709H75.714V129.435H83.4273V130.767H77.3325V134.712H82.6518V136.036ZM90.0279 136.744H87.1449V141.709H85.5179V129.435H89.5811C90.9636 129.435 92.0258 129.75 92.7676 130.379C93.5151 131.009 93.8888 131.925 93.8888 133.127C93.8888 133.892 93.6809 134.558 93.265 135.125C92.8547 135.693 92.2815 136.117 91.5453 136.398L94.4283 141.608V141.709H92.6918L90.0279 136.744ZM87.1449 135.42H89.6317C90.4354 135.42 91.0732 135.212 91.5453 134.796C92.023 134.38 92.2618 133.824 92.2618 133.127C92.2618 132.369 92.0342 131.787 91.579 131.382C91.1294 130.978 90.4775 130.772 89.6233 130.767H87.1449V135.42ZM99.7813 136.238C98.3932 135.839 97.3816 135.35 96.7465 134.771C96.1171 134.187 95.8024 133.467 95.8024 132.613C95.8024 131.646 96.1874 130.848 96.9573 130.219C97.7328 129.584 98.7388 129.266 99.9752 129.266C100.818 129.266 101.568 129.429 102.226 129.755C102.889 130.081 103.401 130.531 103.76 131.104C104.125 131.677 104.308 132.304 104.308 132.984H102.681C102.681 132.242 102.445 131.66 101.973 131.239C101.501 130.812 100.835 130.598 99.9752 130.598C99.1772 130.598 98.5533 130.775 98.1038 131.129C97.6598 131.478 97.4378 131.964 97.4378 132.588C97.4378 133.088 97.6485 133.512 98.07 133.861C98.4971 134.203 99.2193 134.518 100.237 134.805C101.259 135.091 102.057 135.409 102.631 135.757C103.209 136.1 103.637 136.502 103.912 136.963C104.193 137.424 104.333 137.966 104.333 138.59C104.333 139.585 103.946 140.383 103.17 140.984C102.395 141.58 101.358 141.877 100.059 141.877C99.2165 141.877 98.4297 141.717 97.6991 141.397C96.9685 141.071 96.4037 140.627 96.0047 140.065C95.6113 139.503 95.4146 138.865 95.4146 138.151H97.0416C97.0416 138.893 97.3142 139.481 97.8593 139.913C98.41 140.34 99.1434 140.554 100.059 140.554C100.914 140.554 101.568 140.38 102.024 140.031C102.479 139.683 102.706 139.208 102.706 138.607C102.706 138.005 102.496 137.542 102.074 137.216C101.653 136.884 100.888 136.558 99.7813 136.238ZM115.2 136.744H112.317V141.709H110.69V129.435H114.753C116.135 129.435 117.197 129.75 117.939 130.379C118.687 131.009 119.06 131.925 119.06 133.127C119.06 133.892 118.852 134.558 118.437 135.125C118.026 135.693 117.453 136.117 116.717 136.398L119.6 141.608V141.709H117.863L115.2 136.744ZM112.317 135.42H114.803C115.607 135.42 116.245 135.212 116.717 134.796C117.195 134.38 117.433 133.824 117.433 133.127C117.433 132.369 117.206 131.787 116.751 131.382C116.301 130.978 115.649 130.772 114.795 130.767H112.317V135.42ZM130.778 135.968C130.778 137.171 130.576 138.222 130.171 139.121C129.766 140.014 129.193 140.697 128.451 141.169C127.709 141.641 126.844 141.877 125.855 141.877C124.888 141.877 124.031 141.641 123.284 141.169C122.536 140.692 121.955 140.014 121.539 139.138C121.129 138.255 120.918 137.235 120.907 136.078V135.193C120.907 134.012 121.112 132.97 121.522 132.065C121.932 131.16 122.511 130.469 123.259 129.991C124.012 129.508 124.871 129.266 125.838 129.266C126.822 129.266 127.687 129.505 128.434 129.983C129.188 130.455 129.766 131.143 130.171 132.048C130.576 132.947 130.778 133.996 130.778 135.193V135.968ZM129.168 135.176C129.168 133.72 128.876 132.605 128.291 131.829C127.707 131.048 126.889 130.657 125.838 130.657C124.815 130.657 124.009 131.048 123.419 131.829C122.834 132.605 122.534 133.684 122.517 135.066V135.968C122.517 137.379 122.812 138.489 123.402 139.298C123.998 140.102 124.815 140.503 125.855 140.503C126.9 140.503 127.709 140.124 128.283 139.365C128.856 138.601 129.151 137.508 129.168 136.086V135.176ZM133.206 141.709V129.435H137.218C138.55 129.435 139.551 129.71 140.219 130.261C140.894 130.812 141.231 131.627 141.231 132.706C141.231 133.279 141.068 133.788 140.742 134.232C140.416 134.67 139.972 135.01 139.41 135.252C140.073 135.437 140.596 135.791 140.978 136.314C141.366 136.831 141.56 137.449 141.56 138.168C141.56 139.27 141.203 140.135 140.489 140.765C139.775 141.394 138.767 141.709 137.463 141.709H133.206ZM134.824 135.968V140.385H137.497C138.25 140.385 138.843 140.191 139.275 139.804C139.714 139.41 139.933 138.871 139.933 138.185C139.933 136.707 139.129 135.968 137.522 135.968H134.824ZM134.824 134.67H137.269C137.977 134.67 138.542 134.493 138.963 134.139C139.391 133.785 139.604 133.304 139.604 132.697C139.604 132.023 139.407 131.534 139.014 131.231C138.621 130.921 138.022 130.767 137.218 130.767H134.824V134.67ZM153.404 135.968C153.404 137.171 153.201 138.222 152.797 139.121C152.392 140.014 151.819 140.697 151.077 141.169C150.335 141.641 149.47 141.877 148.481 141.877C147.514 141.877 146.657 141.641 145.91 141.169C145.162 140.692 144.581 140.014 144.165 139.138C143.754 138.255 143.544 137.235 143.532 136.078V135.193C143.532 134.012 143.738 132.97 144.148 132.065C144.558 131.16 145.137 130.469 145.884 129.991C146.637 129.508 147.497 129.266 148.464 129.266C149.447 129.266 150.313 129.505 151.06 129.983C151.813 130.455 152.392 131.143 152.797 132.048C153.201 132.947 153.404 133.996 153.404 135.193V135.968ZM151.794 135.176C151.794 133.72 151.501 132.605 150.917 131.829C150.332 131.048 149.515 130.657 148.464 130.657C147.441 130.657 146.635 131.048 146.044 131.829C145.46 132.605 145.159 133.684 145.142 135.066V135.968C145.142 137.379 145.438 138.489 146.028 139.298C146.623 140.102 147.441 140.503 148.481 140.503C149.526 140.503 150.335 140.124 150.909 139.365C151.482 138.601 151.777 137.508 151.794 136.086V135.176ZM164.076 130.767H160.131V141.709H158.521V130.767H154.584V129.435H164.076V130.767ZM167.633 141.709H166.015V129.435H167.633V141.709ZM179.629 137.814C179.477 139.112 178.997 140.116 178.188 140.824C177.384 141.526 176.313 141.877 174.976 141.877C173.526 141.877 172.363 141.358 171.486 140.318C170.615 139.278 170.179 137.887 170.179 136.145V134.965C170.179 133.824 170.382 132.821 170.786 131.955C171.196 131.09 171.775 130.427 172.523 129.966C173.27 129.5 174.136 129.266 175.119 129.266C176.423 129.266 177.468 129.632 178.255 130.362C179.042 131.087 179.5 132.093 179.629 133.38H178.002C177.862 132.402 177.555 131.694 177.083 131.256C176.617 130.817 175.962 130.598 175.119 130.598C174.085 130.598 173.273 130.98 172.683 131.745C172.098 132.509 171.806 133.597 171.806 135.007V136.196C171.806 137.528 172.084 138.587 172.641 139.374C173.197 140.161 173.975 140.554 174.976 140.554C175.875 140.554 176.563 140.352 177.041 139.947C177.524 139.537 177.845 138.826 178.002 137.814H179.629ZM185.463 136.238C184.075 135.839 183.063 135.35 182.428 134.771C181.798 134.187 181.484 133.467 181.484 132.613C181.484 131.646 181.869 130.848 182.639 130.219C183.414 129.584 184.42 129.266 185.657 129.266C186.5 129.266 187.25 129.429 187.907 129.755C188.57 130.081 189.082 130.531 189.442 131.104C189.807 131.677 189.989 132.304 189.989 132.984H188.363C188.363 132.242 188.126 131.66 187.654 131.239C187.182 130.812 186.516 130.598 185.657 130.598C184.858 130.598 184.235 130.775 183.785 131.129C183.341 131.478 183.119 131.964 183.119 132.588C183.119 133.088 183.33 133.512 183.751 133.861C184.178 134.203 184.901 134.518 185.918 134.805C186.941 135.091 187.739 135.409 188.312 135.757C188.891 136.1 189.318 136.502 189.593 136.963C189.874 137.424 190.015 137.966 190.015 138.59C190.015 139.585 189.627 140.383 188.851 140.984C188.076 141.58 187.039 141.877 185.741 141.877C184.898 141.877 184.111 141.717 183.38 141.397C182.65 141.071 182.085 140.627 181.686 140.065C181.293 139.503 181.096 138.865 181.096 138.151H182.723C182.723 138.893 182.995 139.481 183.541 139.913C184.091 140.34 184.825 140.554 185.741 140.554C186.595 140.554 187.25 140.38 187.705 140.031C188.16 139.683 188.388 139.208 188.388 138.607C188.388 138.005 188.177 137.542 187.756 137.216C187.334 136.884 186.57 136.558 185.463 136.238ZM203.157 138.506H198.015L196.86 141.709H195.191L199.878 129.435H201.294L205.989 141.709H204.329L203.157 138.506ZM198.504 137.174H202.676L200.586 131.433L198.504 137.174ZM217.075 141.709H215.448L209.269 132.251V141.709H207.642V129.435H209.269L215.465 138.935V129.435H217.075V141.709ZM219.949 141.709V129.435H223.414C224.482 129.435 225.426 129.671 226.246 130.143C227.067 130.615 227.699 131.287 228.143 132.158C228.593 133.029 228.82 134.029 228.826 135.159V135.943C228.826 137.101 228.601 138.115 228.152 138.986C227.708 139.857 227.07 140.526 226.238 140.992C225.412 141.459 224.448 141.698 223.347 141.709H219.949ZM221.568 130.767V140.385H223.271C224.518 140.385 225.488 139.998 226.179 139.222C226.876 138.446 227.224 137.342 227.224 135.909V135.193C227.224 133.799 226.895 132.717 226.238 131.947C225.586 131.172 224.659 130.778 223.456 130.767H221.568ZM242.499 136.036H237.18V140.385H243.359V141.709H235.561V129.435H243.275V130.767H237.18V134.712H242.499V136.036ZM254.807 141.709H253.18L247.001 132.251V141.709H245.374V129.435H247.001L253.197 138.935V129.435H254.807V141.709ZM266.744 140.099C266.328 140.694 265.746 141.141 264.999 141.439C264.257 141.731 263.391 141.877 262.402 141.877C261.402 141.877 260.514 141.644 259.738 141.178C258.963 140.706 258.361 140.037 257.934 139.171C257.513 138.306 257.296 137.303 257.285 136.162V135.091C257.285 133.242 257.715 131.809 258.575 130.792C259.44 129.775 260.654 129.266 262.217 129.266C263.498 129.266 264.529 129.595 265.31 130.253C266.092 130.905 266.569 131.832 266.744 133.035H265.125C264.822 131.41 263.855 130.598 262.225 130.598C261.14 130.598 260.317 130.98 259.755 131.745C259.199 132.503 258.918 133.605 258.912 135.049V136.052C258.912 137.429 259.227 138.525 259.856 139.34C260.486 140.149 261.337 140.554 262.411 140.554C263.018 140.554 263.549 140.487 264.004 140.352C264.459 140.217 264.836 139.989 265.133 139.669V136.912H262.293V135.597H266.744V140.099ZM271.186 141.709H269.568V129.435H271.186V141.709ZM283.586 141.709H281.959L275.78 132.251V141.709H274.153V129.435H275.78L281.976 138.935V129.435H283.586V141.709ZM293.399 136.036H288.08V140.385H294.259V141.709H286.461V129.435H294.174V130.767H288.08V134.712H293.399V136.036ZM303.211 136.036H297.892V140.385H304.071V141.709H296.273V129.435H303.987V130.767H297.892V134.712H303.211V136.036ZM310.587 136.744H307.704V141.709H306.077V129.435H310.141C311.523 129.435 312.585 129.75 313.327 130.379C314.075 131.009 314.448 131.925 314.448 133.127C314.448 133.892 314.24 134.558 313.824 135.125C313.414 135.693 312.841 136.117 312.105 136.398L314.988 141.608V141.709H313.251L310.587 136.744ZM307.704 135.42H310.191C310.995 135.42 311.633 135.212 312.105 134.796C312.582 134.38 312.821 133.824 312.821 133.127C312.821 132.369 312.594 131.787 312.138 131.382C311.689 130.978 311.037 130.772 310.183 130.767H307.704V135.42ZM318.461 141.709H316.842V129.435H318.461V141.709ZM330.861 141.709H329.234L323.055 132.251V141.709H321.428V129.435H323.055L329.251 138.935V129.435H330.861V141.709ZM342.798 140.099C342.382 140.694 341.8 141.141 341.053 141.439C340.311 141.731 339.446 141.877 338.457 141.877C337.456 141.877 336.568 141.644 335.793 141.178C335.017 140.706 334.416 140.037 333.989 139.171C333.567 138.306 333.351 137.303 333.34 136.162V135.091C333.34 133.242 333.77 131.809 334.629 130.792C335.495 129.775 336.709 129.266 338.271 129.266C339.552 129.266 340.584 129.595 341.365 130.253C342.146 130.905 342.624 131.832 342.798 133.035H341.179C340.876 131.41 339.909 130.598 338.28 130.598C337.195 130.598 336.372 130.98 335.81 131.745C335.253 132.503 334.972 133.605 334.967 135.049V136.052C334.967 137.429 335.281 138.525 335.911 139.34C336.54 140.149 337.392 140.554 338.465 140.554C339.072 140.554 339.603 140.487 340.058 140.352C340.513 140.217 340.89 139.989 341.188 139.669V136.912H338.347V135.597H342.798V140.099Z" fill="#231F20"/>
</svg>
