<svg width="85" height="86" viewBox="0 0 85 86" fill="none" xmlns="http://www.w3.org/2000/svg">
<path d="M42.6965 60.509C33.5365 60.509 26.1112 53.085 26.1112 43.925C26.1112 34.7664 33.5365 27.3397 42.6965 27.3397C51.8551 27.3397 59.2805 34.7664 59.2805 43.925C59.2805 53.085 51.8551 60.509 42.6965 60.509ZM42.6965 13.625C25.9632 13.625 12.3965 27.1917 12.3965 43.925C12.3965 60.6584 25.9632 74.2237 42.6965 74.2237C59.4298 74.2237 72.9951 60.6584 72.9951 43.925C72.9951 27.1917 59.4298 13.625 42.6965 13.625Z" fill="#28AAE1"/>
<path d="M48.4846 16.9108H36.9072V0.421459H48.4846V16.9108Z" fill="#28AAE1"/>
<path d="M48.2288 85.1001H36.6528V68.6107H48.2288V85.1001Z" fill="#28AAE1"/>
<path d="M28.6015 20.2981L20.4135 28.4861L8.75488 16.8247L16.9415 8.6394L28.6015 20.2981Z" fill="#28AAE1"/>
<path d="M76.6382 68.6959L68.4488 76.8826L56.7915 65.2239L64.9782 57.0359L76.6382 68.6959Z" fill="#28AAE1"/>
<path d="M16.5914 48.4214H0.102051V36.8441H16.5914V48.4214Z" fill="#28AAE1"/>
<path d="M84.7794 48.6775H68.29V37.1001H84.7794V48.6775Z" fill="#28AAE1"/>
<path d="M19.9785 56.7277L28.1652 64.9144L16.5065 76.5744L8.31982 68.3877L19.9785 56.7277Z" fill="#28AAE1"/>
<path d="M68.3762 8.69067L76.5628 16.8773L64.9042 28.5373L56.7148 20.352L68.3762 8.69067Z" fill="#28AAE1"/>
</svg>
